<svg xmlns="http://www.w3.org/2000/svg" xmlns:xlink="http://www.w3.org/1999/xlink" preserveAspectRatio="xMidYMid" width="465.969" height="122.843" viewBox="0 0 465.969 122.843">
  <defs>
    <style>
      .cls-1 {
        fill: #47433a;
        fill-rule: evenodd;
      }
    </style>
  </defs>
  <path d="M435.445,57.642 C437.748,58.322 440.920,59.153 444.961,60.134 C449.756,61.305 453.674,62.703 456.714,64.326 C459.753,65.950 462.056,67.866 463.624,70.075 C465.190,72.284 465.974,74.804 465.974,77.636 C465.974,81.904 464.935,85.557 462.859,88.596 C460.782,91.636 457.714,93.940 453.655,95.507 C449.596,97.073 444.658,97.857 438.844,97.857 C433.293,97.857 428.535,97.008 424.570,95.308 C420.605,93.609 417.679,91.485 415.791,88.936 C413.902,86.387 412.959,83.830 412.959,81.261 C412.959,79.562 413.562,78.109 414.771,76.900 C415.979,75.692 417.509,75.088 419.359,75.088 C420.982,75.088 422.228,75.484 423.097,76.277 C423.966,77.070 424.797,78.184 425.590,79.619 C427.176,82.376 429.073,84.433 431.282,85.793 C433.491,87.152 436.502,87.832 440.316,87.832 C443.412,87.832 445.952,87.143 447.934,85.764 C449.917,84.386 450.908,82.810 450.908,81.035 C450.908,78.316 449.879,76.334 447.821,75.088 C445.763,73.842 442.374,72.652 437.654,71.519 C432.330,70.198 427.997,68.810 424.655,67.356 C421.313,65.903 418.641,63.986 416.640,61.607 C414.639,59.228 413.638,56.302 413.638,52.828 C413.638,49.732 414.563,46.805 416.414,44.049 C418.264,41.293 420.992,39.093 424.598,37.450 C428.204,35.807 432.556,34.986 437.654,34.986 C441.656,34.986 445.253,35.402 448.444,36.232 C451.635,37.063 454.297,38.177 456.430,39.574 C458.563,40.971 460.187,42.519 461.302,44.218 C462.415,45.918 462.972,47.580 462.972,49.203 C462.972,50.978 462.378,52.431 461.188,53.564 C459.999,54.697 458.308,55.263 456.119,55.263 C454.533,55.263 453.182,54.810 452.069,53.904 C450.955,52.998 449.680,51.638 448.246,49.826 C447.075,48.316 445.697,47.107 444.111,46.201 C442.525,45.295 440.373,44.842 437.654,44.842 C434.859,44.842 432.537,45.436 430.687,46.626 C428.837,47.815 427.912,49.298 427.912,51.072 C427.912,52.696 428.592,54.027 429.951,55.065 C431.310,56.104 433.141,56.963 435.445,57.642 ZM393.135,97.857 C390.831,97.857 388.962,97.045 387.527,95.422 C386.092,93.798 385.375,91.476 385.375,88.455 L385.375,62.683 C385.375,57.586 384.667,53.687 383.251,50.987 C381.835,48.288 379.012,46.937 374.783,46.937 C372.026,46.937 369.515,47.759 367.250,49.401 C364.984,51.044 363.322,53.300 362.265,56.170 C361.510,58.473 361.133,62.778 361.133,69.084 L361.133,88.455 C361.133,91.590 360.405,93.940 358.952,95.507 C357.498,97.073 355.619,97.857 353.316,97.857 C351.088,97.857 349.257,97.045 347.822,95.422 C346.387,93.798 345.670,91.476 345.670,88.455 L345.670,43.765 C345.670,40.820 346.311,38.621 347.596,37.167 C348.879,35.714 350.635,34.986 352.863,34.986 C354.222,34.986 355.449,35.307 356.545,35.949 C357.639,36.591 358.517,37.554 359.179,38.838 C359.839,40.122 360.170,41.689 360.170,43.539 L360.170,45.408 C362.888,41.821 365.862,39.187 369.091,37.507 C372.319,35.827 376.029,34.986 380.221,34.986 C384.299,34.986 387.942,35.874 391.152,37.648 C394.361,39.423 396.760,41.934 398.346,45.181 C399.365,47.070 400.025,49.109 400.328,51.299 C400.630,53.489 400.781,56.283 400.781,59.681 L400.781,88.455 C400.781,91.551 400.073,93.892 398.657,95.478 C397.241,97.064 395.400,97.857 393.135,97.857 ZM323.070,97.857 C320.728,97.857 318.812,97.036 317.321,95.393 C315.829,93.751 315.084,91.325 315.084,88.115 L315.084,62.117 C315.084,58.795 314.942,56.132 314.659,54.131 C314.376,52.130 313.611,50.449 312.365,49.090 C311.119,47.730 309.230,47.051 306.701,47.051 C304.662,47.051 302.726,47.655 300.895,48.863 C299.063,50.072 297.638,51.695 296.619,53.734 C295.486,56.340 294.920,60.947 294.920,67.554 L294.920,88.115 C294.920,91.363 294.183,93.798 292.711,95.422 C291.238,97.045 289.293,97.857 286.877,97.857 C284.535,97.857 282.638,97.045 281.184,95.422 C279.730,93.798 279.004,91.363 279.004,88.115 L279.004,63.476 C279.004,59.588 278.871,56.566 278.607,54.414 C278.343,52.261 277.625,50.497 276.455,49.118 C275.284,47.740 273.433,47.051 270.904,47.051 C265.844,47.051 262.512,48.788 260.907,52.261 C259.302,55.736 258.500,60.720 258.500,67.215 L258.500,88.115 C258.500,91.325 257.772,93.751 256.319,95.393 C254.865,97.036 252.949,97.857 250.570,97.857 C248.228,97.857 246.312,97.036 244.821,95.393 C243.329,93.751 242.584,91.325 242.584,88.115 L242.584,43.879 C242.584,40.971 243.254,38.762 244.595,37.252 C245.934,35.742 247.700,34.986 249.890,34.986 C252.005,34.986 253.770,35.694 255.186,37.110 C256.602,38.526 257.310,40.480 257.310,42.972 L257.310,44.445 C259.991,41.236 262.861,38.876 265.920,37.365 C268.978,35.855 272.377,35.099 276.115,35.099 C280.004,35.099 283.346,35.874 286.140,37.422 C288.934,38.970 291.238,41.311 293.051,44.445 C295.656,41.273 298.450,38.923 301.433,37.393 C304.416,35.864 307.721,35.099 311.346,35.099 C315.574,35.099 319.219,35.930 322.277,37.592 C325.336,39.254 327.620,41.632 329.131,44.728 C330.452,47.523 331.113,51.922 331.113,57.926 L331.113,88.115 C331.113,91.363 330.377,93.798 328.904,95.422 C327.431,97.045 325.486,97.857 323.070,97.857 ZM220.890,97.857 C218.775,97.857 217.029,97.092 215.651,95.563 C214.272,94.034 213.584,91.891 213.584,89.135 L213.584,87.152 C211.733,89.494 209.789,91.457 207.750,93.043 C205.711,94.629 203.482,95.809 201.066,96.583 C198.649,97.356 195.892,97.744 192.797,97.744 C189.058,97.744 185.707,96.969 182.743,95.422 C179.778,93.874 177.484,91.740 175.861,89.021 C173.935,85.736 172.972,81.016 172.972,74.861 L172.972,44.218 C172.972,41.123 173.671,38.809 175.068,37.280 C176.465,35.751 178.315,34.986 180.619,34.986 C182.960,34.986 184.848,35.760 186.283,37.308 C187.718,38.857 188.435,41.160 188.435,44.218 L188.435,68.970 C188.435,72.558 188.737,75.569 189.342,78.005 C189.945,80.440 191.031,82.347 192.598,83.725 C194.165,85.104 196.289,85.793 198.971,85.793 C201.576,85.793 204.030,85.019 206.334,83.470 C208.637,81.923 210.317,79.902 211.375,77.410 C212.243,75.220 212.678,70.425 212.678,63.023 L212.678,44.218 C212.678,41.160 213.394,38.857 214.830,37.308 C216.264,35.760 218.134,34.986 220.437,34.986 C222.740,34.986 224.591,35.751 225.988,37.280 C227.385,38.809 228.084,41.123 228.084,44.218 L228.084,89.021 C228.084,91.967 227.413,94.176 226.073,95.648 C224.732,97.121 223.005,97.857 220.890,97.857 ZM149.637,122.857 C147.371,122.857 145.530,122.045 144.114,120.422 C142.698,118.799 141.990,116.476 141.990,113.455 L141.990,9.392 C141.990,6.297 142.679,3.955 144.057,2.369 C145.435,0.783 147.295,-0.010 149.637,-0.010 C151.977,-0.010 153.865,0.774 155.301,2.341 C156.735,3.908 157.453,6.258 157.453,9.392 L157.453,113.455 C157.453,116.590 156.725,118.940 155.272,120.507 C153.818,122.073 151.939,122.857 149.637,122.857 ZM121.429,89.191 C118.711,91.986 115.463,94.129 111.687,95.620 C107.911,97.111 103.663,97.857 98.943,97.857 C94.261,97.857 90.051,97.101 86.312,95.592 C82.574,94.082 79.336,91.920 76.598,89.106 C73.860,86.294 71.784,82.970 70.368,79.137 C68.952,75.305 68.244,71.066 68.244,66.422 C68.244,61.740 68.961,57.454 70.396,53.564 C71.831,49.675 73.889,46.352 76.570,43.595 C79.251,40.840 82.498,38.715 86.312,37.223 C90.126,35.732 94.336,34.986 98.943,34.986 C103.625,34.986 107.873,35.742 111.687,37.252 C115.501,38.762 118.767,40.915 121.486,43.709 C124.205,46.504 126.272,49.826 127.688,53.677 C129.104,57.529 129.812,61.777 129.812,66.422 C129.812,71.029 129.095,75.277 127.660,79.166 C126.224,83.055 124.148,86.397 121.429,89.191 ZM110.130,51.695 C107.354,48.183 103.625,46.427 98.943,46.427 C95.922,46.427 93.260,47.212 90.957,48.778 C88.653,50.345 86.879,52.658 85.633,55.717 C84.387,58.775 83.763,62.343 83.763,66.422 C83.763,70.463 84.377,73.993 85.604,77.013 C86.831,80.035 88.587,82.347 90.872,83.952 C93.156,85.557 95.847,86.359 98.943,86.359 C103.625,86.359 107.354,84.594 110.130,81.063 C112.905,77.533 114.293,72.652 114.293,66.422 C114.293,60.116 112.905,55.207 110.130,51.695 ZM19.703,81.007 C21.062,82.725 22.705,84.028 24.631,84.915 C26.556,85.802 28.671,86.246 30.974,86.246 C34.070,86.246 36.723,85.529 38.932,84.093 C41.141,82.659 43.095,80.468 44.795,77.523 C45.738,75.787 46.758,74.427 47.853,73.445 C48.948,72.464 50.289,71.972 51.875,71.972 C53.763,71.972 55.330,72.690 56.576,74.125 C57.822,75.560 58.445,77.090 58.445,78.713 C58.445,80.638 57.869,82.697 56.718,84.886 C55.565,87.077 53.809,89.163 51.450,91.145 C49.090,93.128 46.116,94.723 42.529,95.931 C38.941,97.139 34.901,97.744 30.408,97.744 C20.854,97.744 13.396,94.960 8.035,89.389 C2.673,83.820 -0.008,76.353 -0.008,66.988 C-0.008,60.644 1.219,55.037 3.674,50.166 C6.128,45.295 9.678,41.528 14.322,38.866 C18.967,36.204 24.517,34.873 30.974,34.873 C34.976,34.873 38.649,35.459 41.991,36.629 C45.333,37.800 48.165,39.310 50.487,41.160 C52.809,43.010 54.584,44.983 55.811,47.079 C57.038,49.175 57.652,51.129 57.652,52.941 C57.652,54.792 56.963,56.359 55.585,57.642 C54.206,58.926 52.535,59.568 50.572,59.568 C49.288,59.568 48.221,59.238 47.372,58.577 C46.522,57.917 45.568,56.849 44.512,55.377 C42.623,52.507 40.650,50.355 38.593,48.920 C36.534,47.485 33.920,46.767 30.748,46.767 C26.179,46.767 22.497,48.551 19.703,52.120 C16.908,55.688 15.512,60.569 15.512,66.761 C15.512,69.670 15.870,72.341 16.588,74.776 C17.305,77.212 18.344,79.289 19.703,81.007 Z" class="cls-1"/>
</svg>
